PathFileType	4	(X/Y/Z)	c:/Users/goper/Files/vsCode/490R/osim_files/C17/C17_Slow_04.trc
DataRate	CameraRate	NumFrames	NumMarkers	Units                	OrigDataRate	OrigDataStartFrame	OrigNumFrames
250.00	250.00	4	36	mm	250.0	2252	3002
                Frame#	Time	LPSIS			LASIS			LTH1			LTH2			LTH3			LTH4			LLFE			LMFE			LSH1			LSH2			LSH3			LSH4			LLMAL			LMMAL			LCAL			LMTP5			LTOE			LMTP1			RPSIS			RASIS			RTH1			RTH2			RTH3			RTH4			RLFE			RMFE			RSH1			RSH2			RSH3			RSH4			RLMAL			RMMAL			RCAL			RMTP1			RTOE			RMTP5		
		X1	Y1	Z1	X2	Y2	Z2	X3	Y3	Z3	X4	Y4	Z4	X5	Y5	Z5	X6	Y6	Z6	X7	Y7	Z7	X8	Y8	Z8	X9	Y9	Z9	X10	Y10	Z10	X11	Y11	Z11	X12	Y12	Z12	X13	Y13	Z13	X14	Y14	Z14	X15	Y15	Z15	X16	Y16	Z16	X17	Y17	Z17	X18	Y18	Z18	X19	Y19	Z19	X20	Y20	Z20	X21	Y21	Z21	X22	Y22	Z22	X23	Y23	Z23	X24	Y24	Z24	X25	Y25	Z25	X26	Y26	Z26	X27	Y27	Z27	X28	Y28	Z28	X29	Y29	Z29	X30	Y30	Z30	X31	Y31	Z31	X32	Y32	Z32	X33	Y33	Z33	X34	Y34	Z34	X35	Y35	Z35	X36	Y36	Z36

2252	9.00400	0.00000	0.00000	0.00000	-3212.62476	1045.89197	406.37790	0.00000	0.00000	0.00000	-3064.99341	683.42212	419.91296	-3127.72900	726.39349	429.21445	0.00000	0.00000	0.00000	-3039.31836	518.24689	387.04907	-3030.10840	526.75696	265.56146	-2952.94141	313.14056	383.01373	0.00000	0.00000	0.00000	-3000.32861	291.89600	371.25064	-2985.30981	251.72455	363.58801	-2904.48853	119.46783	344.75571	-2916.13086	126.53297	257.88882	0.00000	0.00000	0.00000	-3013.62988	54.14988	373.93005	-3077.12524	70.50708	308.58310	-3050.59375	50.83629	258.97379	0.00000	0.00000	0.00000	-3195.24683	1049.94189	134.89050	-3325.75903	798.69965	97.15603	-3337.59473	753.78931	97.20119	0.00000	0.00000	0.00000	0.00000	0.00000	0.00000	-3350.41089	529.42004	117.09943	-3368.74414	550.65497	245.48230	0.00000	0.00000	0.00000	-2929.44629	255.87773	375.47525	0.00000	0.00000	0.00000	-2977.54346	242.45773	369.71835	0.00000	0.00000	0.00000	0.00000	0.00000	0.00000	0.00000	0.00000	0.00000	0.00000	0.00000	0.00000	-3555.72681	151.33150	226.74770	-3504.41748	82.24695	179.66193
2253	9.00800	0.00000	0.00000	0.00000	-3217.48657	1045.19702	406.51120	0.00000	0.00000	0.00000	-3068.29419	683.25604	420.38345	-3131.10815	725.98419	429.36484	0.00000	0.00000	0.00000	-3041.85791	518.26282	387.24426	-3031.76611	526.19830	266.13000	-2954.15454	313.54813	383.07755	0.00000	0.00000	0.00000	-3001.52026	292.02472	371.19479	-2986.32446	251.98781	363.58490	-2904.95801	119.91434	344.81842	-2917.30688	126.86875	257.94037	-2829.98877	82.07223	295.42633	-3013.68530	54.15044	373.93112	-3075.64844	69.62063	307.36868	-3050.65845	50.81861	259.01431	0.00000	0.00000	0.00000	-3200.31738	1048.87781	134.93497	-3330.96509	797.81250	97.40525	-3342.61353	752.97186	97.29109	0.00000	0.00000	0.00000	0.00000	0.00000	0.00000	0.00000	0.00000	0.00000	-3374.21167	549.98883	246.08600	0.00000	0.00000	0.00000	-2926.27588	257.47079	373.04312	0.00000	0.00000	0.00000	-2977.71265	241.60904	370.58539	0.00000	0.00000	0.00000	-3077.11719	331.43845	379.28912	0.00000	0.00000	0.00000	0.00000	0.00000	0.00000	0.00000	0.00000	0.00000	-3516.35034	86.75068	180.75821
2254	9.01200	0.00000	0.00000	0.00000	-3222.35498	1044.45630	406.62912	0.00000	0.00000	0.00000	-3073.45801	682.56372	421.43271	-3134.51733	725.54547	429.54254	0.00000	0.00000	0.00000	-3044.46265	518.03546	387.24084	-3034.49023	526.12201	266.29929	-2955.63672	314.11224	383.11642	0.00000	0.00000	0.00000	-3002.78418	292.18097	371.36292	-2987.44751	252.17128	363.66766	-2905.34375	120.52522	344.85416	-2916.96411	127.52281	257.97394	0.00000	0.00000	0.00000	-3013.77686	54.13752	373.97791	-3075.73047	69.57680	307.42630	-3050.68091	50.81840	259.02493	0.00000	0.00000	0.00000	-3205.45142	1047.73193	134.94643	-3336.48950	797.02252	97.64851	-3347.73511	752.14795	97.46102	0.00000	0.00000	0.00000	0.00000	0.00000	0.00000	0.00000	0.00000	0.00000	-3379.63965	549.27911	246.67271	0.00000	0.00000	0.00000	-2927.81226	257.18686	373.69760	0.00000	0.00000	0.00000	-2979.85522	243.01527	370.04086	0.00000	0.00000	0.00000	0.00000	0.00000	0.00000	0.00000	0.00000	0.00000	-3603.42847	167.29932	243.56155	0.00000	0.00000	0.00000	-3527.96875	91.16308	181.90500
2255	9.01600	0.00000	0.00000	0.00000	-3227.41187	1043.83411	406.75244	0.00000	0.00000	0.00000	-3076.75562	682.43494	421.53036	-3138.03931	725.15247	429.75775	0.00000	0.00000	0.00000	-3047.09277	518.09625	387.46796	-3037.34009	526.09711	266.33145	-2956.94946	314.49176	383.21722	0.00000	0.00000	0.00000	-3004.13232	292.29855	371.37845	-2988.58496	252.38571	363.84326	-2905.81299	121.13765	344.92746	-2917.36475	128.04535	258.31860	-2827.66895	87.38436	301.21027	-3013.87329	54.15922	373.97379	-3075.79053	69.57208	307.47696	-3050.76074	50.82540	259.02020	0.00000	0.00000	0.00000	-3210.54248	1046.65015	134.96828	-3341.79663	796.16949	97.85544	-3352.96729	751.24634	97.70384	0.00000	0.00000	0.00000	0.00000	0.00000	0.00000	0.00000	0.00000	0.00000	-3385.18726	548.61304	247.25150	0.00000	0.00000	0.00000	-2931.62183	257.65097	376.19379	0.00000	0.00000	0.00000	-2980.13574	242.41106	370.82568	0.00000	0.00000	0.00000	-3225.61279	202.40929	101.02743	0.00000	0.00000	0.00000	0.00000	0.00000	0.00000	0.00000	0.00000	0.00000	-3539.24243	95.45893	183.18846
